<svg version="1.1" id="Layer_1" xmlns="http://www.w3.org/2000/svg" xmlns:xlink="http://www.w3.org/1999/xlink" x="0px" y="0px"
	 width="100%" viewBox="0 0 500 500" enable-background="new 0 0 500 500" xml:space="preserve">
<path fill="#000000" opacity="1.000000" stroke="none" 
	d="
M234.000000,501.000000 
	C156.000015,501.000000 78.500038,501.000000 1.000041,501.000000 
	C1.000028,334.333405 1.000028,167.666779 1.000014,1.000131 
	C167.666565,1.000087 334.333130,1.000087 500.999756,1.000044 
	C500.999847,167.666519 500.999847,334.333038 500.999939,500.999786 
	C412.166656,501.000000 323.333344,501.000000 234.000000,501.000000 
M234.124084,187.063095 
	C234.294067,194.724319 234.464066,202.385529 234.688354,210.976944 
	C234.827606,218.301819 234.966843,225.626694 234.993332,233.879456 
	C235.391663,245.279800 235.789993,256.680145 236.155975,268.962921 
	C236.155975,290.209198 236.155975,311.455475 236.155975,332.701752 
	C236.736603,332.698273 237.317230,332.694824 237.897858,332.691345 
	C237.897858,311.143433 237.897858,289.595520 238.017654,267.112915 
	C237.365387,255.738998 236.713135,244.365082 236.111023,232.056183 
	C236.035843,224.721924 235.960678,217.387650 235.989105,209.133804 
	C235.602341,201.479691 235.215591,193.825562 234.941422,185.210876 
	C234.941422,180.155746 234.941422,175.100616 234.941422,170.045502 
	C234.176727,170.098022 233.412048,170.150543 232.647354,170.203079 
	C233.147079,175.516785 233.646805,180.830505 234.124084,187.063095 
M242.998886,306.955017 
	C242.998886,315.155670 242.998886,323.356323 242.998886,331.556976 
	C243.290070,331.557037 243.581268,331.557098 243.872452,331.557129 
	C243.872452,323.060577 243.872452,314.563995 243.956863,305.124969 
	C243.628845,295.747620 243.300827,286.370270 242.998520,276.056793 
	C242.998520,263.962097 242.998520,251.867386 242.998520,239.772675 
	C242.699814,239.768616 242.401093,239.764557 242.102386,239.760498 
	C242.102386,252.166000 242.102386,264.571503 242.040451,277.917023 
	C242.371872,287.285522 242.703278,296.653992 242.998886,306.955017 
M269.962311,233.838440 
	C274.691864,247.515442 279.353333,261.216980 284.258270,274.830811 
	C284.739136,276.165466 286.813416,277.894287 287.975067,277.773682 
	C289.473602,277.618164 291.543213,276.061584 292.080261,274.626801 
	C296.804962,262.004089 301.232849,249.270447 305.788727,236.584030 
	C306.118225,235.666443 306.762115,234.861725 308.008514,232.715088 
	C308.433533,240.380783 308.705444,246.514191 309.130463,252.636948 
	C309.648804,260.104675 310.163605,267.578827 311.030304,275.009369 
	C311.159637,276.118134 313.203979,277.003540 314.362366,277.992279 
	C315.068115,276.942810 316.432556,275.859589 316.380798,274.848938 
	C315.606598,259.734161 314.717285,244.623901 313.647797,229.527252 
	C313.495087,227.371429 314.163605,224.256439 310.258026,223.923264 
	C306.583954,223.609833 304.328003,224.721222 303.193115,228.475006 
	C301.460999,234.204346 299.368103,239.826202 297.372345,245.473892 
	C294.480713,253.656937 291.539032,261.822296 288.342804,270.767242 
	C283.244690,256.315063 278.453766,242.714172 273.647675,229.118622 
	C271.639862,223.438766 270.037811,222.763245 263.853271,225.806381 
	C262.915680,238.043869 261.979034,250.281448 261.040070,262.518829 
	C260.723145,266.648773 260.238373,270.776550 260.195679,274.909119 
	C260.185181,275.926147 261.606903,276.957977 262.370178,277.983002 
	C263.509705,277.099945 264.864319,276.380524 265.707397,275.272003 
	C266.206604,274.615631 265.894928,273.344635 265.952972,272.350311 
	C266.658447,260.259216 267.324982,248.165466 268.141815,236.081909 
	C268.212097,235.042496 269.280212,234.070572 269.962311,233.838440 
M85.693275,200.301727 
	C96.467552,200.519897 107.241837,200.738052 118.118484,201.894211 
	C118.121353,233.179306 118.194267,264.464722 118.039711,295.749054 
	C118.020073,299.724152 119.102036,300.945709 123.096527,300.783203 
	C130.737976,300.472290 138.417114,300.408661 146.049332,300.821106 
	C150.186600,301.044739 151.049164,299.777771 151.027176,295.857910 
	C150.858139,265.738556 150.914490,235.617935 150.917145,205.497696 
	C150.917267,204.060760 151.070679,202.623825 151.166656,200.942688 
	C162.634018,200.942688 173.752014,200.942688 184.910553,201.889709 
	C184.910553,245.222702 184.910553,288.555695 184.910553,331.888702 
	C185.371674,332.044708 185.832794,332.200714 186.293915,332.356720 
	C196.219330,322.312927 206.213272,312.334778 215.980377,302.139343 
	C217.154770,300.913452 217.541748,298.511780 217.549011,296.652161 
	C217.668076,266.169464 217.688644,235.686279 217.637634,205.203354 
	C217.634750,203.478729 217.380463,201.199112 216.301270,200.118057 
	C206.086746,189.885788 195.667786,179.857620 184.854904,169.092560 
	C184.132828,168.751007 183.412582,168.116669 182.688385,168.112122 
	C172.907593,168.050461 163.124466,167.986969 153.347015,168.180786 
	C151.943924,168.208603 150.332001,169.331635 149.219498,170.376617 
	C144.395966,174.907471 139.721832,179.597382 134.295853,184.114029 
	C132.342758,182.368286 129.985138,180.909760 128.506577,178.827118 
	C122.085213,169.782257 113.587502,166.454834 102.660713,168.006073 
	C96.822456,168.834915 90.842827,168.667908 84.257355,169.074310 
	C75.158882,178.049103 66.250961,187.230057 56.870556,195.899811 
	C52.978386,199.497116 51.360405,203.225479 51.379177,208.458923 
	C51.483170,237.450745 51.282902,266.443604 51.321789,295.435913 
	C51.324757,297.646851 51.669495,300.541016 53.047756,301.957031 
	C63.089684,312.274109 73.437180,322.293701 83.941750,332.657501 
	C84.049149,331.126984 84.220863,329.827881 84.219772,328.528870 
	C84.185249,287.368134 84.123512,246.207397 84.122131,205.046661 
	C84.122078,203.342590 84.663292,201.638474 85.693275,200.301727 
M379.965332,248.420410 
	C376.489288,258.068604 373.013245,267.716797 369.452667,277.599640 
	C373.207336,278.592865 375.740265,278.278656 376.598511,274.252716 
	C376.907288,272.804260 377.570526,271.424347 378.133667,270.038177 
	C381.920502,260.717224 379.198273,261.936920 389.998077,261.856720 
	C403.216766,261.758545 403.317627,261.793488 408.040009,274.550934 
	C409.452972,278.368042 411.613098,278.736481 415.101196,277.306488 
	C414.843628,276.207001 414.718872,275.236023 414.390808,274.339447 
	C408.734283,258.880005 403.034058,243.436554 397.395355,227.970627 
	C396.476898,225.451538 395.306793,222.963638 392.224365,224.043076 
	C390.400543,224.681778 388.339142,226.362427 387.607330,228.091934 
	C384.889130,234.515472 382.678040,241.153610 379.965332,248.420410 
M353.385986,228.826569 
	C354.384430,228.825363 355.474731,229.082306 356.361328,228.766785 
	C357.982544,228.189850 359.483307,227.274445 361.034302,226.500214 
	C359.413879,225.657959 357.819427,224.153381 356.168518,224.088623 
	C349.190430,223.814880 342.192352,224.093140 335.208252,223.912033 
	C332.051636,223.830154 330.746033,224.751083 330.775482,228.101715 
	C330.910095,243.409470 330.900116,258.719177 330.819672,274.027557 
	C330.804321,276.948029 331.622498,278.209595 334.784821,278.125793 
	C342.433838,277.923096 350.094513,278.142975 357.741913,277.910828 
	C359.143280,277.868286 360.504211,276.496094 361.883789,275.737640 
	C360.556030,274.899811 359.262573,273.411377 357.894440,273.339294 
	C352.584473,273.059479 347.239410,273.017090 341.929688,273.302094 
	C337.882721,273.519318 336.610840,271.906158 336.890656,268.068848 
	C337.144135,264.592896 337.096558,261.075134 336.898834,257.591888 
	C336.709656,254.259140 337.735474,252.675415 341.362885,252.859467 
	C345.843567,253.086823 350.356598,253.061478 354.831299,252.770706 
	C356.053223,252.691315 357.187805,251.267471 358.362457,250.460648 
	C357.217834,249.646622 356.110046,248.199417 354.922119,248.130386 
	C350.279083,247.860474 345.606995,247.915085 340.953033,248.069717 
	C337.881042,248.171783 336.792694,246.841614 336.895081,243.908707 
	C337.022736,240.252167 337.043671,236.583969 336.905396,232.928574 
	C336.794037,229.983673 337.872559,228.635391 340.939056,228.757278 
	C344.760559,228.909164 348.592041,228.810471 353.385986,228.826569 
M242.025360,221.497284 
	C241.534943,210.301529 241.044525,199.105789 240.554108,187.910034 
	C240.059402,187.946793 239.564697,187.983566 239.069992,188.020325 
	C239.715271,203.814896 240.360550,219.609482 241.005829,235.404053 
	C241.347321,235.393646 241.688812,235.383224 242.030304,235.372803 
	C242.030304,231.078796 242.030304,226.784790 242.025360,221.497284 
z"/>
<path fill="#4EA8FE" opacity="1.000000" stroke="none" 
	d="
M134.993378,184.229462 
	C139.721832,179.597382 144.395966,174.907471 149.219498,170.376617 
	C150.332001,169.331635 151.943924,168.208603 153.347015,168.180786 
	C163.124466,167.986969 172.907593,168.050461 182.688385,168.112122 
	C183.412582,168.116669 184.132828,168.751007 184.981598,169.905212 
	C185.028885,180.792801 184.949448,190.867752 184.870010,200.942688 
	C173.752014,200.942688 162.634018,200.942688 151.166656,200.942688 
	C151.070679,202.623825 150.917267,204.060760 150.917145,205.497696 
	C150.914490,235.617935 150.858139,265.738556 151.027176,295.857910 
	C151.049164,299.777771 150.186600,301.044739 146.049332,300.821106 
	C138.417114,300.408661 130.737976,300.472290 123.096527,300.783203 
	C119.102036,300.945709 118.020073,299.724152 118.039711,295.749054 
	C118.194267,264.464722 118.121353,233.179306 118.260086,201.157654 
	C123.932251,195.023895 129.462814,189.626678 134.993378,184.229462 
z"/>
<path fill="#4FA9FD" opacity="1.000000" stroke="none" 
	d="
M84.952332,199.934387 
	C84.663292,201.638474 84.122078,203.342590 84.122131,205.046661 
	C84.123512,246.207397 84.185249,287.368134 84.219772,328.528870 
	C84.220863,329.827881 84.049149,331.126984 83.941750,332.657501 
	C73.437180,322.293701 63.089684,312.274109 53.047756,301.957031 
	C51.669495,300.541016 51.324757,297.646851 51.321789,295.435913 
	C51.282902,266.443604 51.483170,237.450745 51.379177,208.458923 
	C51.360405,203.225479 52.978386,199.497116 56.870556,195.899811 
	C66.250961,187.230057 75.158882,178.049103 84.624115,169.483093 
	C84.978035,179.906036 84.965187,189.920212 84.952332,199.934387 
z"/>
<path fill="#484D8F" opacity="1.000000" stroke="none" 
	d="
M184.890289,201.416199 
	C184.949448,190.867752 185.028885,180.792801 185.208008,170.244263 
	C195.667786,179.857620 206.086746,189.885788 216.301270,200.118057 
	C217.380463,201.199112 217.634750,203.478729 217.637634,205.203354 
	C217.688644,235.686279 217.668076,266.169464 217.549011,296.652161 
	C217.541748,298.511780 217.154770,300.913452 215.980377,302.139343 
	C206.213272,312.334778 196.219330,322.312927 186.293915,332.356720 
	C185.832794,332.200714 185.371674,332.044708 184.910553,331.888702 
	C184.910553,288.555695 184.910553,245.222702 184.890289,201.416199 
z"/>
<path fill="#474D90" opacity="1.000000" stroke="none" 
	d="
M85.322800,200.118057 
	C84.965187,189.920212 84.978035,179.906036 84.958939,169.421112 
	C90.842827,168.667908 96.822456,168.834915 102.660713,168.006073 
	C113.587502,166.454834 122.085213,169.782257 128.506577,178.827118 
	C129.985138,180.909760 132.342758,182.368286 134.644623,184.171753 
	C129.462814,189.626678 123.932251,195.023895 118.208900,200.688660 
	C107.241837,200.738052 96.467552,200.519897 85.322800,200.118057 
z"/>
<path fill="#2F3665" opacity="1.000000" stroke="none" 
	d="
M264.057068,225.003830 
	C270.037811,222.763245 271.639862,223.438766 273.647675,229.118622 
	C278.453766,242.714172 283.244690,256.315063 288.342804,270.767242 
	C291.539032,261.822296 294.480713,253.656937 297.372345,245.473892 
	C299.368103,239.826202 301.460999,234.204346 303.193115,228.475006 
	C304.328003,224.721222 306.583954,223.609833 310.258026,223.923264 
	C314.163605,224.256439 313.495087,227.371429 313.647797,229.527252 
	C314.717285,244.623901 315.606598,259.734161 316.380798,274.848938 
	C316.432556,275.859589 315.068115,276.942810 314.362366,277.992279 
	C313.203979,277.003540 311.159637,276.118134 311.030304,275.009369 
	C310.163605,267.578827 309.648804,260.104675 309.130463,252.636948 
	C308.705444,246.514191 308.433533,240.380783 308.008514,232.715088 
	C306.762115,234.861725 306.118225,235.666443 305.788727,236.584030 
	C301.232849,249.270447 296.804962,262.004089 292.080261,274.626801 
	C291.543213,276.061584 289.473602,277.618164 287.975067,277.773682 
	C286.813416,277.894287 284.739136,276.165466 284.258270,274.830811 
	C279.353333,261.216980 274.691864,247.515442 270.215820,233.253845 
	C272.816071,227.697037 271.646790,226.299240 264.057068,225.003830 
z"/>
<path fill="#2F3767" opacity="1.000000" stroke="none" 
	d="
M380.120911,248.065781 
	C382.678040,241.153610 384.889130,234.515472 387.607330,228.091934 
	C388.339142,226.362427 390.400543,224.681778 392.224365,224.043076 
	C395.306793,222.963638 396.476898,225.451538 397.395355,227.970627 
	C403.034058,243.436554 408.734283,258.880005 414.390808,274.339447 
	C414.718872,275.236023 414.843628,276.207001 415.101196,277.306488 
	C411.613098,278.736481 409.452972,278.368042 408.040009,274.550934 
	C403.317627,261.793488 403.216766,261.758545 389.998077,261.856720 
	C379.198273,261.936920 381.920502,260.717224 378.133667,270.038177 
	C377.570526,271.424347 376.907288,272.804260 376.598511,274.252716 
	C375.740265,278.278656 373.207336,278.592865 369.452667,277.599640 
	C373.013245,267.716797 376.489288,258.068604 380.120911,248.065781 
M385.938660,248.495575 
	C385.178314,251.054947 384.417969,253.614334 383.577942,256.442017 
	C389.931580,256.442017 395.267395,256.442017 401.637817,256.442017 
	C398.528412,247.941101 395.717621,240.256668 392.906860,232.572235 
	C392.489349,232.657837 392.071869,232.743439 391.654388,232.829056 
	C389.819489,237.795319 387.984619,242.761597 385.938660,248.495575 
z"/>
<path fill="#2E3665" opacity="1.000000" stroke="none" 
	d="
M352.902588,228.823273 
	C348.592041,228.810471 344.760559,228.909164 340.939056,228.757278 
	C337.872559,228.635391 336.794037,229.983673 336.905396,232.928574 
	C337.043671,236.583969 337.022736,240.252167 336.895081,243.908707 
	C336.792694,246.841614 337.881042,248.171783 340.953033,248.069717 
	C345.606995,247.915085 350.279083,247.860474 354.922119,248.130386 
	C356.110046,248.199417 357.217834,249.646622 358.362457,250.460648 
	C357.187805,251.267471 356.053223,252.691315 354.831299,252.770706 
	C350.356598,253.061478 345.843567,253.086823 341.362885,252.859467 
	C337.735474,252.675415 336.709656,254.259140 336.898834,257.591888 
	C337.096558,261.075134 337.144135,264.592896 336.890656,268.068848 
	C336.610840,271.906158 337.882721,273.519318 341.929688,273.302094 
	C347.239410,273.017090 352.584473,273.059479 357.894440,273.339294 
	C359.262573,273.411377 360.556030,274.899811 361.883789,275.737640 
	C360.504211,276.496094 359.143280,277.868286 357.741913,277.910828 
	C350.094513,278.142975 342.433838,277.923096 334.784821,278.125793 
	C331.622498,278.209595 330.804321,276.948029 330.819672,274.027557 
	C330.900116,258.719177 330.910095,243.409470 330.775482,228.101715 
	C330.746033,224.751083 332.051636,223.830154 335.208252,223.912033 
	C342.192352,224.093140 349.190430,223.814880 356.168518,224.088623 
	C357.819427,224.153381 359.413879,225.657959 361.034302,226.500214 
	C359.483307,227.274445 357.982544,228.189850 356.361328,228.766785 
	C355.474731,229.082306 354.384430,228.825363 352.902588,228.823273 
z"/>
<path fill="#2F3660" opacity="1.000000" stroke="none" 
	d="
M263.955170,225.405106 
	C271.646790,226.299240 272.816071,227.697037 270.177032,232.868286 
	C269.280212,234.070572 268.212097,235.042496 268.141815,236.081909 
	C267.324982,248.165466 266.658447,260.259216 265.952972,272.350311 
	C265.894928,273.344635 266.206604,274.615631 265.707397,275.272003 
	C264.864319,276.380524 263.509705,277.099945 262.370178,277.983002 
	C261.606903,276.957977 260.185181,275.926147 260.195679,274.909119 
	C260.238373,270.776550 260.723145,266.648773 261.040070,262.518829 
	C261.979034,250.281448 262.915680,238.043869 263.955170,225.405106 
z"/>
<path fill="#152D62" opacity="1.000000" stroke="none" 
	d="
M242.027832,221.994034 
	C242.030304,226.784790 242.030304,231.078796 242.030304,235.372803 
	C241.688812,235.383224 241.347321,235.393646 241.005829,235.404053 
	C240.360550,219.609482 239.715271,203.814896 239.069992,188.020325 
	C239.564697,187.983566 240.059402,187.946793 240.554108,187.910034 
	C241.044525,199.105789 241.534943,210.301529 242.027832,221.994034 
z"/>
<path fill="#1E4090" opacity="1.000000" stroke="none" 
	d="
M237.897858,268.047607 
	C237.897858,289.595520 237.897858,311.143433 237.897858,332.691345 
	C237.317230,332.694824 236.736603,332.698273 236.155975,332.701752 
	C236.155975,311.455475 236.155975,290.209198 236.456696,268.502747 
	C237.137558,268.044220 237.517715,268.045929 237.897858,268.047607 
z"/>
<path fill="#152D62" opacity="1.000000" stroke="none" 
	d="
M237.957764,267.580261 
	C237.517715,268.045929 237.137558,268.044220 236.472870,268.061523 
	C235.789993,256.680145 235.391663,245.279800 235.288208,233.429764 
	C235.583069,232.980072 236.060883,232.991165 236.060883,232.991165 
	C236.713135,244.365082 237.365387,255.738998 237.957764,267.580261 
z"/>
<path fill="#0D1A3D" opacity="1.000000" stroke="none" 
	d="
M242.102386,276.977020 
	C242.102386,264.571503 242.102386,252.166000 242.102386,239.760498 
	C242.401093,239.764557 242.699814,239.768616 242.998520,239.772675 
	C242.998520,251.867386 242.998520,263.962097 242.768158,276.522278 
	C242.537811,276.987762 242.102386,276.977020 242.102386,276.977020 
z"/>
<path fill="#0A1533" opacity="1.000000" stroke="none" 
	d="
M242.071411,277.447021 
	C242.102386,276.977020 242.537811,276.987762 242.755310,276.990356 
	C243.300827,286.370270 243.628845,295.747620 243.705811,305.581604 
	C243.454742,306.038239 243.034683,306.022491 243.034683,306.022491 
	C242.703278,296.653992 242.371872,287.285522 242.071411,277.447021 
z"/>
<path fill="#152D62" opacity="1.000000" stroke="none" 
	d="
M234.634064,210.046753 
	C234.464066,202.385529 234.294067,194.724319 234.305725,186.603363 
	C234.487350,186.143631 234.828827,186.171448 234.828827,186.171448 
	C235.215591,193.825562 235.602341,201.479691 235.624466,209.592133 
	C235.051224,210.049210 234.842636,210.047974 234.634064,210.046753 
z"/>
<path fill="#08112A" opacity="1.000000" stroke="none" 
	d="
M234.885132,185.691162 
	C234.828827,186.171448 234.487350,186.143631 234.316940,186.143921 
	C233.646805,180.830505 233.147079,175.516785 232.647354,170.203079 
	C233.412048,170.150543 234.176727,170.098022 234.941422,170.045502 
	C234.941422,175.100616 234.941422,180.155746 234.885132,185.691162 
z"/>
<path fill="#112250" opacity="1.000000" stroke="none" 
	d="
M243.016785,306.488770 
	C243.034683,306.022491 243.454742,306.038239 243.663605,306.052856 
	C243.872452,314.563995 243.872452,323.060577 243.872452,331.557129 
	C243.581268,331.557098 243.290070,331.557037 242.998886,331.556976 
	C242.998886,323.356323 242.998886,315.155670 243.016785,306.488770 
z"/>
<path fill="#1E4090" opacity="1.000000" stroke="none" 
	d="
M234.661194,210.511841 
	C234.842636,210.047974 235.051224,210.049210 235.572662,210.051926 
	C235.960678,217.387650 236.035843,224.721924 236.085953,232.523682 
	C236.060883,232.991165 235.583069,232.980072 235.344574,232.965820 
	C234.966843,225.626694 234.827606,218.301819 234.661194,210.511841 
z"/>
<path fill="#010204" opacity="1.000000" stroke="none" 
	d="
M386.044189,248.111725 
	C387.984619,242.761597 389.819489,237.795319 391.654388,232.829056 
	C392.071869,232.743439 392.489349,232.657837 392.906860,232.572235 
	C395.717621,240.256668 398.528412,247.941101 401.637817,256.442017 
	C395.267395,256.442017 389.931580,256.442017 383.577942,256.442017 
	C384.417969,253.614334 385.178314,251.054947 386.044189,248.111725 
z"/>
</svg>